G04*
G04 #@! TF.GenerationSoftware,Altium Limited,Altium Designer,20.1.11 (218)*
G04*
G04 Layer_Color=8421504*
%FSLAX25Y25*%
%MOIN*%
G70*
G04*
G04 #@! TF.SameCoordinates,BFD9478E-40F5-488C-9E65-EBE4A76B9196*
G04*
G04*
G04 #@! TF.FilePolarity,Positive*
G04*
G01*
G75*
%ADD10R,0.01200X0.01600*%
%ADD11R,0.04331X0.04921*%
%ADD12R,0.07165X0.02441*%
%ADD13R,0.07008X0.24252*%
%ADD14R,0.11811X0.07874*%
%ADD15R,0.02047X0.02835*%
%ADD16R,0.02008X0.01595*%
%ADD17R,0.00984X0.00303*%
%ADD18R,0.03898X0.01595*%
%ADD19R,0.06791X0.08799*%
%ADD20R,0.05709X0.04724*%
%ADD21R,0.03740X0.03150*%
%ADD22R,0.02756X0.03347*%
%ADD23R,0.03937X0.04331*%
%ADD24R,0.02165X0.02165*%
%ADD25R,0.03543X0.03937*%
%ADD26R,0.01600X0.01200*%
%ADD27R,0.03500X0.01200*%
G04:AMPARAMS|DCode=28|XSize=43.31mil|YSize=23.62mil|CornerRadius=2.01mil|HoleSize=0mil|Usage=FLASHONLY|Rotation=180.000|XOffset=0mil|YOffset=0mil|HoleType=Round|Shape=RoundedRectangle|*
%AMROUNDEDRECTD28*
21,1,0.04331,0.01961,0,0,180.0*
21,1,0.03929,0.02362,0,0,180.0*
1,1,0.00402,-0.01965,0.00980*
1,1,0.00402,0.01965,0.00980*
1,1,0.00402,0.01965,-0.00980*
1,1,0.00402,-0.01965,-0.00980*
%
%ADD28ROUNDEDRECTD28*%
%ADD29R,0.05118X0.05118*%
%ADD30R,0.06024X0.10709*%
%ADD31R,0.10630X0.05118*%
%ADD32R,0.05118X0.03937*%
%ADD33R,0.05315X0.04331*%
%ADD34R,0.04134X0.03740*%
%ADD35R,0.02047X0.02205*%
%ADD36R,0.04331X0.05315*%
D10*
X167323Y353740D02*
D03*
X171260Y347047D02*
D03*
X169291D02*
D03*
X167323D02*
D03*
X171260Y353740D02*
D03*
X169291D02*
D03*
D11*
X87795Y347835D02*
D03*
Y341142D02*
D03*
X167323Y327362D02*
D03*
Y334055D02*
D03*
X185039Y343110D02*
D03*
Y349803D02*
D03*
D12*
X95669Y352756D02*
D03*
Y340158D02*
D03*
X105512Y352756D02*
D03*
Y340158D02*
D03*
X115354Y352756D02*
D03*
Y340158D02*
D03*
X125197Y352756D02*
D03*
Y340158D02*
D03*
D13*
X154961Y348031D02*
D03*
X136378D02*
D03*
D14*
X208661Y283465D02*
D03*
Y307087D02*
D03*
X210630Y354331D02*
D03*
Y330709D02*
D03*
D15*
X161417Y358268D02*
D03*
X166142D02*
D03*
D16*
X41122Y423260D02*
D03*
Y425858D02*
D03*
Y428457D02*
D03*
Y431055D02*
D03*
D17*
X42618Y422614D02*
D03*
Y431716D02*
D03*
D18*
X53366Y423260D02*
D03*
Y425858D02*
D03*
Y431055D02*
D03*
Y428457D02*
D03*
D19*
X45520Y427157D02*
D03*
D20*
X137795Y283465D02*
D03*
Y291339D02*
D03*
X192913Y322835D02*
D03*
Y330709D02*
D03*
D21*
X137795Y296654D02*
D03*
Y301772D02*
D03*
D22*
X54823Y437008D02*
D03*
X59350D02*
D03*
D23*
X149606Y274410D02*
D03*
Y279528D02*
D03*
D24*
X177165Y330709D02*
D03*
Y334252D02*
D03*
Y323031D02*
D03*
Y326575D02*
D03*
D25*
X114961Y440945D02*
D03*
X121260D02*
D03*
D26*
X166929Y349409D02*
D03*
D27*
X167891Y351378D02*
D03*
X170691Y349409D02*
D03*
D28*
X148228Y283662D02*
D03*
Y291142D02*
D03*
Y287402D02*
D03*
X158858Y283662D02*
D03*
Y287402D02*
D03*
Y291142D02*
D03*
D29*
X165354Y279528D02*
D03*
X177165D02*
D03*
D30*
X185665Y255906D02*
D03*
X196224D02*
D03*
X185665Y271654D02*
D03*
X196224D02*
D03*
D31*
X194882Y338976D02*
D03*
Y350000D02*
D03*
D32*
X192913Y292323D02*
D03*
Y298228D02*
D03*
X181102Y292323D02*
D03*
Y298228D02*
D03*
D33*
X169291Y292520D02*
D03*
Y298031D02*
D03*
D34*
X183071Y327854D02*
D03*
Y333563D02*
D03*
D35*
X161417Y327638D02*
D03*
Y330630D02*
D03*
D36*
X154564Y273557D02*
D03*
X160076D02*
D03*
M02*
