G04*
G04 #@! TF.GenerationSoftware,Altium Limited,Altium Designer,21.2.2 (38)*
G04*
G04 Layer_Color=8388736*
%FSLAX25Y25*%
%MOIN*%
G70*
G04*
G04 #@! TF.SameCoordinates,CEF95F07-8C43-49F3-AA8E-E0B24A2A1908*
G04*
G04*
G04 #@! TF.FilePolarity,Positive*
G04*
G01*
G75*
%ADD12C,0.00787*%
D12*
X172736Y256693D02*
Y265354D01*
X178445D01*
Y256693D02*
Y265354D01*
X172736Y256693D02*
X178445D01*
X200138Y372126D02*
Y376260D01*
X197972Y372126D02*
X200138D01*
X197972D02*
Y376260D01*
X200138D01*
X193150Y372224D02*
Y376161D01*
X195118D01*
Y372224D02*
Y376161D01*
X193150Y372224D02*
X195118D01*
X214409Y390728D02*
X223071D01*
Y385216D02*
Y390728D01*
X214409Y385216D02*
X223071D01*
X214409D02*
Y390728D01*
X207913Y372224D02*
Y376161D01*
X205945Y372224D02*
X207913D01*
X205945D02*
Y376161D01*
X207913D01*
X214803Y378130D02*
Y382067D01*
X212835Y378130D02*
X214803D01*
X212835D02*
Y382067D01*
X214803D01*
X148957Y361299D02*
Y369961D01*
X154665D01*
Y361299D02*
Y369961D01*
X148957Y361299D02*
X154665D01*
X159882Y317008D02*
Y347323D01*
X141772Y317008D02*
X159882D01*
X141772D02*
Y347323D01*
X159882D01*
X272776Y335413D02*
Y344075D01*
X267067Y335413D02*
X272776D01*
X267067D02*
Y344075D01*
X272776D01*
X218406Y272146D02*
Y276279D01*
X216240Y272146D02*
X218406D01*
X216240D02*
Y276279D01*
X218406D01*
X209252Y272154D02*
Y276091D01*
X211221D01*
Y272154D02*
Y276091D01*
X209252Y272154D02*
X211221D01*
X234252Y283661D02*
X239764D01*
Y292323D01*
X234252D02*
X239764D01*
X234252Y283661D02*
Y292323D01*
X224606Y275894D02*
X226575D01*
X224606Y271957D02*
Y275894D01*
Y271957D02*
X226575D01*
Y275894D01*
X231693Y276091D02*
X233661D01*
X231693Y272154D02*
Y276091D01*
Y272154D02*
X233661D01*
Y276091D01*
X158661Y244783D02*
X176772D01*
X158661Y214469D02*
Y244783D01*
Y214469D02*
X176772D01*
Y244783D01*
X251083Y249606D02*
X256791D01*
X251083Y240945D02*
Y249606D01*
Y240945D02*
X256791D01*
Y249606D01*
X179941Y156398D02*
Y168405D01*
X173051D02*
X179941D01*
X173051Y156398D02*
Y168405D01*
Y156398D02*
X179941D01*
X86910Y424409D02*
X90256D01*
X86910Y418110D02*
Y424409D01*
Y418110D02*
X90256D01*
Y424409D01*
X189390Y165945D02*
X195098D01*
Y174606D01*
X189390D02*
X195098D01*
X189390Y165945D02*
Y174606D01*
X176102Y151083D02*
X184764D01*
Y145374D02*
Y151083D01*
X176102Y145374D02*
X184764D01*
X176102D02*
Y151083D01*
M02*
