G04*
G04 #@! TF.GenerationSoftware,Altium Limited,Altium Designer,21.2.2 (38)*
G04*
G04 Layer_Color=8388736*
%FSLAX25Y25*%
%MOIN*%
G70*
G04*
G04 #@! TF.SameCoordinates,CEF95F07-8C43-49F3-AA8E-E0B24A2A1908*
G04*
G04*
G04 #@! TF.FilePolarity,Positive*
G04*
G01*
G75*
%ADD12C,0.00787*%
D12*
X10827Y267126D02*
X31693D01*
Y307677D01*
X10827D02*
X31693D01*
X10827Y267126D02*
Y307677D01*
X9933Y123425D02*
X30799D01*
Y163976D01*
X9933D02*
X30799D01*
X9933Y123425D02*
Y163976D01*
X9843Y217913D02*
Y258465D01*
X30709D01*
Y217913D02*
Y258465D01*
X9843Y217913D02*
X30709D01*
X9843Y170669D02*
Y211221D01*
X30709D01*
Y170669D02*
Y211221D01*
X9843Y170669D02*
X30709D01*
X13780Y29921D02*
Y70473D01*
X34646D01*
Y29921D02*
Y70473D01*
X13780Y29921D02*
X34646D01*
X48228Y266142D02*
X69094D01*
Y306693D01*
X48228D02*
X69094D01*
X48228Y266142D02*
Y306693D01*
Y218898D02*
X69094D01*
Y259449D01*
X48228D02*
X69094D01*
X48228Y218898D02*
Y259449D01*
Y171653D02*
X69094D01*
Y212205D01*
X48228D02*
X69094D01*
X48228Y171653D02*
Y212205D01*
Y124410D02*
X69094D01*
Y164961D01*
X48228D02*
X69094D01*
X48228Y124410D02*
Y164961D01*
Y77165D02*
Y117717D01*
X69094D01*
Y77165D02*
Y117717D01*
X48228Y77165D02*
X69094D01*
X48228Y29921D02*
Y70473D01*
X69094D01*
Y29921D02*
Y70473D01*
X48228Y29921D02*
X69094D01*
X13780Y77165D02*
Y117717D01*
X34646D01*
Y77165D02*
Y117717D01*
X13780Y77165D02*
X34646D01*
X18111Y288901D02*
X20510D01*
X20960Y288751D01*
X21110Y288601D01*
X21260Y288301D01*
Y288001D01*
X21110Y287702D01*
X20960Y287551D01*
X20510Y287402D01*
X20210D01*
X18711Y289711D02*
X18561Y290011D01*
X18111Y290461D01*
X21260D01*
X22309Y292020D02*
Y294419D01*
X18111Y294824D02*
X21260D01*
X18111D02*
X21260Y296024D01*
X18111Y297223D02*
X21260Y296024D01*
X18111Y297223D02*
X21260D01*
X18111Y299023D02*
X18261Y298723D01*
X18561Y298423D01*
X18861Y298273D01*
X19310Y298123D01*
X20060D01*
X20510Y298273D01*
X20810Y298423D01*
X21110Y298723D01*
X21260Y299023D01*
Y299622D01*
X21110Y299922D01*
X20810Y300222D01*
X20510Y300372D01*
X20060Y300522D01*
X19310D01*
X18861Y300372D01*
X18561Y300222D01*
X18261Y299922D01*
X18111Y299622D01*
Y299023D01*
Y301257D02*
X20360D01*
X20810Y301407D01*
X21110Y301707D01*
X21260Y302157D01*
Y302456D01*
X21110Y302906D01*
X20810Y303206D01*
X20360Y303356D01*
X18111D01*
Y305276D02*
X21260D01*
X18111Y304226D02*
Y306325D01*
X18711Y306700D02*
X18561Y307000D01*
X18111Y307450D01*
X21260D01*
X18861Y309159D02*
X18711D01*
X18411Y309309D01*
X18261Y309459D01*
X18111Y309759D01*
Y310359D01*
X18261Y310659D01*
X18411Y310809D01*
X18711Y310959D01*
X19011D01*
X19310Y310809D01*
X19760Y310509D01*
X21260Y309009D01*
Y311109D01*
X17217Y145200D02*
X19616D01*
X20066Y145050D01*
X20216Y144900D01*
X20366Y144600D01*
Y144301D01*
X20216Y144001D01*
X20066Y143851D01*
X19616Y143701D01*
X19316D01*
X17817Y146010D02*
X17667Y146310D01*
X17217Y146760D01*
X20366D01*
X21416Y148319D02*
Y150718D01*
X17217Y151123D02*
X20366D01*
X17217D02*
X20366Y152323D01*
X17217Y153523D02*
X20366Y152323D01*
X17217Y153523D02*
X20366D01*
X17217Y155322D02*
X17367Y155022D01*
X17667Y154722D01*
X17967Y154572D01*
X18417Y154422D01*
X19166D01*
X19616Y154572D01*
X19916Y154722D01*
X20216Y155022D01*
X20366Y155322D01*
Y155922D01*
X20216Y156222D01*
X19916Y156521D01*
X19616Y156671D01*
X19166Y156821D01*
X18417D01*
X17967Y156671D01*
X17667Y156521D01*
X17367Y156222D01*
X17217Y155922D01*
Y155322D01*
Y157556D02*
X19466D01*
X19916Y157706D01*
X20216Y158006D01*
X20366Y158456D01*
Y158756D01*
X20216Y159205D01*
X19916Y159505D01*
X19466Y159655D01*
X17217D01*
Y161575D02*
X20366D01*
X17217Y160525D02*
Y162624D01*
X18267Y164949D02*
X18717Y164799D01*
X19016Y164499D01*
X19166Y164049D01*
Y163899D01*
X19016Y163449D01*
X18717Y163149D01*
X18267Y162999D01*
X18117D01*
X17667Y163149D01*
X17367Y163449D01*
X17217Y163899D01*
Y164049D01*
X17367Y164499D01*
X17667Y164799D01*
X18267Y164949D01*
X19016D01*
X19766Y164799D01*
X20216Y164499D01*
X20366Y164049D01*
Y163749D01*
X20216Y163299D01*
X19916Y163149D01*
X17127Y239688D02*
X19526D01*
X19976Y239539D01*
X20126Y239389D01*
X20276Y239089D01*
Y238789D01*
X20126Y238489D01*
X19976Y238339D01*
X19526Y238189D01*
X19226D01*
X17726Y240498D02*
X17576Y240798D01*
X17127Y241248D01*
X20276D01*
X21325Y242807D02*
Y245207D01*
X17127Y245612D02*
X20276D01*
X17127D02*
X20276Y246811D01*
X17127Y248011D02*
X20276Y246811D01*
X17127Y248011D02*
X20276D01*
X17127Y249810D02*
X17277Y249510D01*
X17576Y249210D01*
X17876Y249060D01*
X18326Y248910D01*
X19076D01*
X19526Y249060D01*
X19826Y249210D01*
X20126Y249510D01*
X20276Y249810D01*
Y250410D01*
X20126Y250710D01*
X19826Y251010D01*
X19526Y251160D01*
X19076Y251310D01*
X18326D01*
X17876Y251160D01*
X17576Y251010D01*
X17277Y250710D01*
X17127Y250410D01*
Y249810D01*
Y252044D02*
X19376D01*
X19826Y252194D01*
X20126Y252494D01*
X20276Y252944D01*
Y253244D01*
X20126Y253694D01*
X19826Y253994D01*
X19376Y254144D01*
X17127D01*
Y256063D02*
X20276D01*
X17127Y255013D02*
Y257113D01*
X17726Y257488D02*
X17576Y257787D01*
X17127Y258237D01*
X20276D01*
X17726Y259797D02*
X17576Y260097D01*
X17127Y260546D01*
X20276D01*
X17127Y192444D02*
X19526D01*
X19976Y192294D01*
X20126Y192145D01*
X20276Y191845D01*
Y191545D01*
X20126Y191245D01*
X19976Y191095D01*
X19526Y190945D01*
X19226D01*
X17726Y193254D02*
X17576Y193554D01*
X17127Y194004D01*
X20276D01*
X21325Y195563D02*
Y197962D01*
X17127Y198367D02*
X20276D01*
X17127D02*
X20276Y199567D01*
X17127Y200767D02*
X20276Y199567D01*
X17127Y200767D02*
X20276D01*
X17127Y202566D02*
X17277Y202266D01*
X17576Y201966D01*
X17876Y201816D01*
X18326Y201666D01*
X19076D01*
X19526Y201816D01*
X19826Y201966D01*
X20126Y202266D01*
X20276Y202566D01*
Y203166D01*
X20126Y203466D01*
X19826Y203766D01*
X19526Y203916D01*
X19076Y204065D01*
X18326D01*
X17876Y203916D01*
X17576Y203766D01*
X17277Y203466D01*
X17127Y203166D01*
Y202566D01*
Y204800D02*
X19376D01*
X19826Y204950D01*
X20126Y205250D01*
X20276Y205700D01*
Y206000D01*
X20126Y206450D01*
X19826Y206750D01*
X19376Y206899D01*
X17127D01*
Y208819D02*
X20276D01*
X17127Y207769D02*
Y209869D01*
X17726Y210243D02*
X17576Y210543D01*
X17127Y210993D01*
X20276D01*
X17127Y213452D02*
X17277Y213002D01*
X17726Y212702D01*
X18476Y212553D01*
X18926D01*
X19676Y212702D01*
X20126Y213002D01*
X20276Y213452D01*
Y213752D01*
X20126Y214202D01*
X19676Y214502D01*
X18926Y214652D01*
X18476D01*
X17726Y214502D01*
X17277Y214202D01*
X17127Y213752D01*
Y213452D01*
X21064Y51696D02*
X23463D01*
X23913Y51547D01*
X24063Y51397D01*
X24213Y51097D01*
Y50797D01*
X24063Y50497D01*
X23913Y50347D01*
X23463Y50197D01*
X23163D01*
X21663Y52506D02*
X21513Y52806D01*
X21064Y53256D01*
X24213D01*
X25262Y54815D02*
Y57214D01*
X21064Y57619D02*
X24213D01*
X21064D02*
X24213Y58819D01*
X21064Y60019D02*
X24213Y58819D01*
X21064Y60019D02*
X24213D01*
X21064Y61818D02*
X21214Y61518D01*
X21513Y61218D01*
X21813Y61068D01*
X22263Y60918D01*
X23013D01*
X23463Y61068D01*
X23763Y61218D01*
X24063Y61518D01*
X24213Y61818D01*
Y62418D01*
X24063Y62718D01*
X23763Y63018D01*
X23463Y63168D01*
X23013Y63318D01*
X22263D01*
X21813Y63168D01*
X21513Y63018D01*
X21214Y62718D01*
X21064Y62418D01*
Y61818D01*
Y64052D02*
X23313D01*
X23763Y64202D01*
X24063Y64502D01*
X24213Y64952D01*
Y65252D01*
X24063Y65702D01*
X23763Y66002D01*
X23313Y66151D01*
X21064D01*
Y68071D02*
X24213D01*
X21064Y67021D02*
Y69121D01*
Y70245D02*
X21214Y69795D01*
X21513Y69645D01*
X21813D01*
X22113Y69795D01*
X22263Y70095D01*
X22413Y70695D01*
X22563Y71145D01*
X22863Y71445D01*
X23163Y71595D01*
X23613D01*
X23913Y71445D01*
X24063Y71295D01*
X24213Y70845D01*
Y70245D01*
X24063Y69795D01*
X23913Y69645D01*
X23613Y69495D01*
X23163D01*
X22863Y69645D01*
X22563Y69945D01*
X22413Y70395D01*
X22263Y70995D01*
X22113Y71295D01*
X21813Y71445D01*
X21513D01*
X21214Y71295D01*
X21064Y70845D01*
Y70245D01*
X55512Y287917D02*
X57912D01*
X58361Y287767D01*
X58511Y287617D01*
X58661Y287317D01*
Y287017D01*
X58511Y286717D01*
X58361Y286567D01*
X57912Y286417D01*
X57612D01*
X56112Y288726D02*
X55962Y289026D01*
X55512Y289476D01*
X58661D01*
X59711Y291036D02*
Y293435D01*
X55512Y293840D02*
X58661D01*
X55512D02*
X58661Y295039D01*
X55512Y296239D02*
X58661Y295039D01*
X55512Y296239D02*
X58661D01*
X55512Y298038D02*
X55662Y297739D01*
X55962Y297439D01*
X56262Y297289D01*
X56712Y297139D01*
X57462D01*
X57912Y297289D01*
X58211Y297439D01*
X58511Y297739D01*
X58661Y298038D01*
Y298638D01*
X58511Y298938D01*
X58211Y299238D01*
X57912Y299388D01*
X57462Y299538D01*
X56712D01*
X56262Y299388D01*
X55962Y299238D01*
X55662Y298938D01*
X55512Y298638D01*
Y298038D01*
Y300273D02*
X57762D01*
X58211Y300423D01*
X58511Y300723D01*
X58661Y301172D01*
Y301472D01*
X58511Y301922D01*
X58211Y302222D01*
X57762Y302372D01*
X55512D01*
Y304291D02*
X58661D01*
X55512Y303242D02*
Y305341D01*
X56112Y305716D02*
X55962Y306016D01*
X55512Y306466D01*
X58661D01*
X55512Y240673D02*
X57912D01*
X58361Y240523D01*
X58511Y240373D01*
X58661Y240073D01*
Y239773D01*
X58511Y239473D01*
X58361Y239323D01*
X57912Y239173D01*
X57612D01*
X56112Y241482D02*
X55962Y241782D01*
X55512Y242232D01*
X58661D01*
X59711Y243792D02*
Y246191D01*
X55512Y246596D02*
X58661D01*
X55512D02*
X58661Y247795D01*
X55512Y248995D02*
X58661Y247795D01*
X55512Y248995D02*
X58661D01*
X55512Y250794D02*
X55662Y250494D01*
X55962Y250194D01*
X56262Y250044D01*
X56712Y249894D01*
X57462D01*
X57912Y250044D01*
X58211Y250194D01*
X58511Y250494D01*
X58661Y250794D01*
Y251394D01*
X58511Y251694D01*
X58211Y251994D01*
X57912Y252144D01*
X57462Y252294D01*
X56712D01*
X56262Y252144D01*
X55962Y251994D01*
X55662Y251694D01*
X55512Y251394D01*
Y250794D01*
Y253028D02*
X57762D01*
X58211Y253178D01*
X58511Y253478D01*
X58661Y253928D01*
Y254228D01*
X58511Y254678D01*
X58211Y254978D01*
X57762Y255128D01*
X55512D01*
Y257047D02*
X58661D01*
X55512Y255997D02*
Y258097D01*
X56262Y258622D02*
X56112D01*
X55812Y258771D01*
X55662Y258921D01*
X55512Y259221D01*
Y259821D01*
X55662Y260121D01*
X55812Y260271D01*
X56112Y260421D01*
X56412D01*
X56712Y260271D01*
X57162Y259971D01*
X58661Y258472D01*
Y260571D01*
X55512Y193429D02*
X57912D01*
X58361Y193279D01*
X58511Y193129D01*
X58661Y192829D01*
Y192529D01*
X58511Y192229D01*
X58361Y192079D01*
X57912Y191929D01*
X57612D01*
X56112Y194238D02*
X55962Y194538D01*
X55512Y194988D01*
X58661D01*
X59711Y196548D02*
Y198947D01*
X55512Y199352D02*
X58661D01*
X55512D02*
X58661Y200551D01*
X55512Y201751D02*
X58661Y200551D01*
X55512Y201751D02*
X58661D01*
X55512Y203550D02*
X55662Y203250D01*
X55962Y202950D01*
X56262Y202800D01*
X56712Y202650D01*
X57462D01*
X57912Y202800D01*
X58211Y202950D01*
X58511Y203250D01*
X58661Y203550D01*
Y204150D01*
X58511Y204450D01*
X58211Y204750D01*
X57912Y204900D01*
X57462Y205050D01*
X56712D01*
X56262Y204900D01*
X55962Y204750D01*
X55662Y204450D01*
X55512Y204150D01*
Y203550D01*
Y205784D02*
X57762D01*
X58211Y205934D01*
X58511Y206234D01*
X58661Y206684D01*
Y206984D01*
X58511Y207434D01*
X58211Y207734D01*
X57762Y207884D01*
X55512D01*
Y209803D02*
X58661D01*
X55512Y208753D02*
Y210853D01*
Y211527D02*
Y213177D01*
X56712Y212277D01*
Y212727D01*
X56862Y213027D01*
X57012Y213177D01*
X57462Y213327D01*
X57762D01*
X58211Y213177D01*
X58511Y212877D01*
X58661Y212427D01*
Y211977D01*
X58511Y211527D01*
X58361Y211378D01*
X58061Y211228D01*
X55512Y146185D02*
X57912D01*
X58361Y146035D01*
X58511Y145885D01*
X58661Y145585D01*
Y145285D01*
X58511Y144985D01*
X58361Y144835D01*
X57912Y144685D01*
X57612D01*
X56112Y146994D02*
X55962Y147294D01*
X55512Y147744D01*
X58661D01*
X59711Y149304D02*
Y151703D01*
X55512Y152108D02*
X58661D01*
X55512D02*
X58661Y153307D01*
X55512Y154507D02*
X58661Y153307D01*
X55512Y154507D02*
X58661D01*
X55512Y156306D02*
X55662Y156006D01*
X55962Y155706D01*
X56262Y155556D01*
X56712Y155406D01*
X57462D01*
X57912Y155556D01*
X58211Y155706D01*
X58511Y156006D01*
X58661Y156306D01*
Y156906D01*
X58511Y157206D01*
X58211Y157506D01*
X57912Y157656D01*
X57462Y157806D01*
X56712D01*
X56262Y157656D01*
X55962Y157506D01*
X55662Y157206D01*
X55512Y156906D01*
Y156306D01*
Y158540D02*
X57762D01*
X58211Y158690D01*
X58511Y158990D01*
X58661Y159440D01*
Y159740D01*
X58511Y160190D01*
X58211Y160490D01*
X57762Y160640D01*
X55512D01*
Y162559D02*
X58661D01*
X55512Y161509D02*
Y163609D01*
Y165483D02*
X57612Y163984D01*
Y166233D01*
X55512Y165483D02*
X58661D01*
X55512Y98940D02*
X57912D01*
X58361Y98791D01*
X58511Y98641D01*
X58661Y98341D01*
Y98041D01*
X58511Y97741D01*
X58361Y97591D01*
X57912Y97441D01*
X57612D01*
X56112Y99750D02*
X55962Y100050D01*
X55512Y100500D01*
X58661D01*
X59711Y102059D02*
Y104459D01*
X55512Y104863D02*
X58661D01*
X55512D02*
X58661Y106063D01*
X55512Y107263D02*
X58661Y106063D01*
X55512Y107263D02*
X58661D01*
X55512Y109062D02*
X55662Y108762D01*
X55962Y108462D01*
X56262Y108312D01*
X56712Y108162D01*
X57462D01*
X57912Y108312D01*
X58211Y108462D01*
X58511Y108762D01*
X58661Y109062D01*
Y109662D01*
X58511Y109962D01*
X58211Y110262D01*
X57912Y110412D01*
X57462Y110562D01*
X56712D01*
X56262Y110412D01*
X55962Y110262D01*
X55662Y109962D01*
X55512Y109662D01*
Y109062D01*
Y111296D02*
X57762D01*
X58211Y111446D01*
X58511Y111746D01*
X58661Y112196D01*
Y112496D01*
X58511Y112946D01*
X58211Y113246D01*
X57762Y113396D01*
X55512D01*
Y115315D02*
X58661D01*
X55512Y114265D02*
Y116365D01*
Y118539D02*
Y117039D01*
X56862Y116889D01*
X56712Y117039D01*
X56562Y117489D01*
Y117939D01*
X56712Y118389D01*
X57012Y118689D01*
X57462Y118839D01*
X57762D01*
X58211Y118689D01*
X58511Y118389D01*
X58661Y117939D01*
Y117489D01*
X58511Y117039D01*
X58361Y116889D01*
X58061Y116739D01*
X55512Y51696D02*
X57912D01*
X58361Y51547D01*
X58511Y51397D01*
X58661Y51097D01*
Y50797D01*
X58511Y50497D01*
X58361Y50347D01*
X57912Y50197D01*
X57612D01*
X56112Y52506D02*
X55962Y52806D01*
X55512Y53256D01*
X58661D01*
X59711Y54815D02*
Y57215D01*
X55512Y57619D02*
X58661D01*
X55512D02*
X58661Y58819D01*
X55512Y60019D02*
X58661Y58819D01*
X55512Y60019D02*
X58661D01*
X55512Y61818D02*
X55662Y61518D01*
X55962Y61218D01*
X56262Y61068D01*
X56712Y60918D01*
X57462D01*
X57912Y61068D01*
X58211Y61218D01*
X58511Y61518D01*
X58661Y61818D01*
Y62418D01*
X58511Y62718D01*
X58211Y63018D01*
X57912Y63168D01*
X57462Y63318D01*
X56712D01*
X56262Y63168D01*
X55962Y63018D01*
X55662Y62718D01*
X55512Y62418D01*
Y61818D01*
Y64052D02*
X57762D01*
X58211Y64202D01*
X58511Y64502D01*
X58661Y64952D01*
Y65252D01*
X58511Y65702D01*
X58211Y66002D01*
X57762Y66151D01*
X55512D01*
Y68071D02*
X58661D01*
X55512Y67021D02*
Y69121D01*
X55962Y71295D02*
X55662Y71145D01*
X55512Y70695D01*
Y70395D01*
X55662Y69945D01*
X56112Y69645D01*
X56862Y69495D01*
X57612D01*
X58211Y69645D01*
X58511Y69945D01*
X58661Y70395D01*
Y70545D01*
X58511Y70995D01*
X58211Y71295D01*
X57762Y71445D01*
X57612D01*
X57162Y71295D01*
X56862Y70995D01*
X56712Y70545D01*
Y70395D01*
X56862Y69945D01*
X57162Y69645D01*
X57612Y69495D01*
X21064Y98940D02*
X23463D01*
X23913Y98791D01*
X24063Y98641D01*
X24213Y98341D01*
Y98041D01*
X24063Y97741D01*
X23913Y97591D01*
X23463Y97441D01*
X23163D01*
X21663Y99750D02*
X21513Y100050D01*
X21064Y100500D01*
X24213D01*
X25262Y102059D02*
Y104459D01*
X21064Y104863D02*
X24213D01*
X21064D02*
X24213Y106063D01*
X21064Y107263D02*
X24213Y106063D01*
X21064Y107263D02*
X24213D01*
X21064Y109062D02*
X21214Y108762D01*
X21513Y108462D01*
X21813Y108312D01*
X22263Y108162D01*
X23013D01*
X23463Y108312D01*
X23763Y108462D01*
X24063Y108762D01*
X24213Y109062D01*
Y109662D01*
X24063Y109962D01*
X23763Y110262D01*
X23463Y110412D01*
X23013Y110562D01*
X22263D01*
X21813Y110412D01*
X21513Y110262D01*
X21214Y109962D01*
X21064Y109662D01*
Y109062D01*
Y111296D02*
X23313D01*
X23763Y111446D01*
X24063Y111746D01*
X24213Y112196D01*
Y112496D01*
X24063Y112946D01*
X23763Y113246D01*
X23313Y113396D01*
X21064D01*
Y115315D02*
X24213D01*
X21064Y114265D02*
Y116365D01*
Y118839D02*
X24213Y117339D01*
X21064Y116739D02*
Y118839D01*
M02*
