G04*
G04 #@! TF.GenerationSoftware,Altium Limited,Altium Designer,21.2.2 (38)*
G04*
G04 Layer_Color=32896*
%FSLAX25Y25*%
%MOIN*%
G70*
G04*
G04 #@! TF.SameCoordinates,CEF95F07-8C43-49F3-AA8E-E0B24A2A1908*
G04*
G04*
G04 #@! TF.FilePolarity,Positive*
G04*
G01*
G75*
%ADD94C,0.00591*%
D94*
X11614Y267913D02*
X30906D01*
Y306890D01*
X11614D02*
X30906D01*
X11614Y267913D02*
Y306890D01*
X10720Y124213D02*
X30012D01*
Y163189D01*
X10720D02*
X30012D01*
X10720Y124213D02*
Y163189D01*
X10630Y218701D02*
Y257677D01*
X29921D01*
Y218701D02*
Y257677D01*
X10630Y218701D02*
X29921D01*
X10630Y171457D02*
Y210433D01*
X29921D01*
Y171457D02*
Y210433D01*
X10630Y171457D02*
X29921D01*
X14567Y30709D02*
Y69685D01*
X33858D01*
Y30709D02*
Y69685D01*
X14567Y30709D02*
X33858D01*
X49016Y266929D02*
X68307D01*
Y305905D01*
X49016D02*
X68307D01*
X49016Y266929D02*
Y305905D01*
Y219685D02*
X68307D01*
Y258661D01*
X49016D02*
X68307D01*
X49016Y219685D02*
Y258661D01*
Y172441D02*
X68307D01*
Y211417D01*
X49016D02*
X68307D01*
X49016Y172441D02*
Y211417D01*
Y125197D02*
X68307D01*
Y164173D01*
X49016D02*
X68307D01*
X49016Y125197D02*
Y164173D01*
Y77953D02*
Y116929D01*
X68307D01*
Y77953D02*
Y116929D01*
X49016Y77953D02*
X68307D01*
X49016Y30709D02*
Y69685D01*
X68307D01*
Y30709D02*
Y69685D01*
X49016Y30709D02*
X68307D01*
X14567Y77953D02*
Y116929D01*
X33858D01*
Y77953D02*
Y116929D01*
X14567Y77953D02*
X33858D01*
M02*
