G04*
G04 #@! TF.GenerationSoftware,Altium Limited,Altium Designer,21.2.2 (38)*
G04*
G04 Layer_Color=8388736*
%FSLAX25Y25*%
%MOIN*%
G70*
G04*
G04 #@! TF.SameCoordinates,CEF95F07-8C43-49F3-AA8E-E0B24A2A1908*
G04*
G04*
G04 #@! TF.FilePolarity,Positive*
G04*
G01*
G75*
%ADD93C,0.00050*%
%ADD99C,0.00500*%
D93*
X103245Y381366D02*
G03*
X103245Y381366I-11811J0D01*
G01*
X96749D02*
G03*
X96749Y381366I-5315J0D01*
G01*
X296158D02*
G03*
X296158Y381366I-11811J0D01*
G01*
X289662D02*
G03*
X289662Y381366I-5315J0D01*
G01*
X96749Y153020D02*
G03*
X96749Y153020I-5315J0D01*
G01*
X289662D02*
G03*
X289662Y153020I-5315J0D01*
G01*
X103245D02*
G03*
X103245Y153020I-11811J0D01*
G01*
X296158D02*
G03*
X296158Y153020I-11811J0D01*
G01*
X81591Y367193D02*
X101277D01*
X221355Y214240D02*
Y217783D01*
X208757D02*
X296946D01*
Y206563D02*
Y217783D01*
X284348Y214240D02*
Y217783D01*
X208757Y206760D02*
Y217783D01*
X221355Y214240D02*
X284348D01*
X221946Y206760D02*
X226473Y202232D01*
X208757Y206760D02*
X221946D01*
X279229Y202232D02*
X283560Y206563D01*
X296946D01*
X226473Y202232D02*
X279229D01*
X163875Y388512D02*
X211080D01*
X163875Y343433D02*
X211080D01*
X166198Y388512D02*
Y404063D01*
X209505Y388512D02*
Y404063D01*
X163875Y343433D02*
Y388512D01*
X211080Y343433D02*
Y388512D01*
X166198Y404063D02*
X209505D01*
X301395Y304988D02*
X303363Y306957D01*
X303757D01*
X303363Y278610D02*
X303757D01*
X301395Y280579D02*
X303363Y278610D01*
X301395Y251839D02*
X303363Y253807D01*
X303757D01*
X303363Y225461D02*
X303757D01*
X163285Y48689D02*
Y49870D01*
X220371Y48689D02*
Y49870D01*
X233757Y48689D02*
Y50657D01*
X291631Y48689D02*
Y50657D01*
X298127Y194358D02*
X307969D01*
X298127Y170736D02*
X307969D01*
X163285Y48689D02*
X165962D01*
X163285Y49870D02*
X165962D01*
X217694D02*
X220371D01*
X217694Y48689D02*
X220371D01*
X233757Y50657D02*
X236828D01*
X233757Y48689D02*
X236828D01*
X288560Y50657D02*
X291631D01*
X273914Y368079D02*
X303048D01*
X273914Y334024D02*
X303048D01*
X272458Y304988D02*
X301395D01*
X272458Y280579D02*
X301395D01*
X272458Y251839D02*
X301395D01*
X272458Y227429D02*
X301395D01*
X248914Y196327D02*
X298127D01*
X248914Y168768D02*
X298127D01*
X165962Y117587D02*
X217694D01*
X236828Y118374D02*
X288560D01*
X165962Y48689D02*
X217694D01*
X236828D02*
X291631D01*
X87477Y132744D02*
X148540D01*
X87477Y48689D02*
X148540D01*
X301395Y227429D02*
X303363Y225461D01*
X273914Y334024D02*
Y368079D01*
X272458Y280579D02*
Y304988D01*
X303048Y334024D02*
Y368079D01*
X303757Y278610D02*
Y306957D01*
X301395Y280579D02*
Y304988D01*
X248914Y168768D02*
Y196327D01*
X272458Y227429D02*
Y251839D01*
X298127Y168768D02*
Y196327D01*
Y170736D02*
Y194358D01*
X301395Y227429D02*
Y251839D01*
X303757Y225461D02*
Y253807D01*
X307969Y170736D02*
Y194358D01*
X165962Y48689D02*
Y117587D01*
X217694Y48689D02*
Y117587D01*
X236828Y48689D02*
Y118374D01*
X288560Y48689D02*
Y118374D01*
X87477Y48689D02*
Y132744D01*
X148540Y48689D02*
Y132744D01*
X101277Y167193D02*
Y367193D01*
X81591Y167193D02*
Y367193D01*
Y167193D02*
X101277D01*
D99*
X89465Y395146D02*
G03*
X77654Y383335I0J-11811D01*
G01*
X298127Y383335D02*
G03*
X286316Y395146I-11811J0D01*
G01*
X77654Y72311D02*
G03*
X89465Y60500I11811J-0D01*
G01*
X286316D02*
G03*
X298127Y72311I0J11811D01*
G01*
X89465Y395146D02*
X286316D01*
X298127Y72311D02*
Y383335D01*
X77654Y72311D02*
Y383335D01*
X89465Y60500D02*
X286316D01*
M02*
