G04*
G04 #@! TF.GenerationSoftware,Altium Limited,Altium Designer,21.2.2 (38)*
G04*
G04 Layer_Color=0*
%FSLAX25Y25*%
%MOIN*%
G70*
G04*
G04 #@! TF.SameCoordinates,CEF95F07-8C43-49F3-AA8E-E0B24A2A1908*
G04*
G04*
G04 #@! TF.FilePolarity,Positive*
G04*
G01*
G75*
%ADD11C,0.00394*%
D11*
X175591Y259055D02*
Y262992D01*
X173622Y261024D02*
X177559D01*
X199055Y372224D02*
Y376161D01*
X197087Y374193D02*
X201024D01*
X194134Y372224D02*
Y376161D01*
X192165Y374193D02*
X196102D01*
X216772Y387972D02*
X220709D01*
X218740Y386004D02*
Y389941D01*
X206929Y372224D02*
Y376161D01*
X204961Y374193D02*
X208898D01*
X213819Y378130D02*
Y382067D01*
X211850Y380098D02*
X215787D01*
X151811Y363661D02*
Y367598D01*
X149843Y365630D02*
X153779D01*
X150827Y330197D02*
Y334134D01*
X148858Y332165D02*
X152795D01*
X269921Y337776D02*
Y341713D01*
X267953Y339744D02*
X271890D01*
X217323Y272244D02*
Y276181D01*
X215354Y274213D02*
X219291D01*
X210236Y272154D02*
Y276091D01*
X208268Y274123D02*
X212205D01*
X235039Y287992D02*
X238976D01*
X237008Y286024D02*
Y289961D01*
X223622Y273926D02*
X227559D01*
X225590Y271957D02*
Y275894D01*
X230709Y274123D02*
X234646D01*
X232677Y272154D02*
Y276091D01*
X165748Y229626D02*
X169685D01*
X167717Y227658D02*
Y231594D01*
X251969Y245276D02*
X255906D01*
X253937Y243307D02*
Y247244D01*
X176496Y160433D02*
Y164370D01*
X174528Y162402D02*
X178465D01*
X86614Y421260D02*
X90551D01*
X88583Y419291D02*
Y423228D01*
X190276Y170276D02*
X194213D01*
X192244Y168307D02*
Y172244D01*
X178465Y148228D02*
X182402D01*
X180433Y146260D02*
Y150197D01*
M02*
