G04*
G04 #@! TF.GenerationSoftware,Altium Limited,Altium Designer,21.2.2 (38)*
G04*
G04 Layer_Color=16711935*
%FSLAX25Y25*%
%MOIN*%
G70*
G04*
G04 #@! TF.SameCoordinates,CEF95F07-8C43-49F3-AA8E-E0B24A2A1908*
G04*
G04*
G04 #@! TF.FilePolarity,Positive*
G04*
G01*
G75*
%ADD12C,0.00787*%
D12*
X219653Y245193D02*
X217029D01*
X216504Y244668D01*
Y243619D01*
X217029Y243094D01*
X219653D01*
X219128Y242044D02*
X219653Y241520D01*
Y240470D01*
X219128Y239945D01*
X218603D01*
X218078Y240470D01*
Y240995D01*
Y240470D01*
X217553Y239945D01*
X217029D01*
X216504Y240470D01*
Y241520D01*
X217029Y242044D01*
X215979Y238896D02*
Y236797D01*
X219653Y235747D02*
X217029D01*
X216504Y235222D01*
Y234173D01*
X217029Y233648D01*
X219653D01*
X215979Y232599D02*
Y230500D01*
X219653Y227351D02*
Y229450D01*
X218078D01*
X218603Y228400D01*
Y227876D01*
X218078Y227351D01*
X217029D01*
X216504Y227876D01*
Y228925D01*
X217029Y229450D01*
X218603Y226301D02*
X216504Y225252D01*
X218603Y224202D01*
X216504Y221054D02*
Y223153D01*
X218603Y221054D01*
X219128D01*
X219653Y221579D01*
Y222628D01*
X219128Y223153D01*
X205125Y347142D02*
X202501D01*
X201976Y346617D01*
Y345567D01*
X202501Y345043D01*
X205125D01*
X204600Y343993D02*
X205125Y343468D01*
Y342419D01*
X204600Y341894D01*
X204075D01*
X203551Y342419D01*
Y342944D01*
Y342419D01*
X203026Y341894D01*
X202501D01*
X201976Y342419D01*
Y343468D01*
X202501Y343993D01*
X201452Y340844D02*
Y338745D01*
X205125Y337696D02*
X202501D01*
X201976Y337171D01*
Y336122D01*
X202501Y335597D01*
X205125D01*
X201452Y334547D02*
Y332448D01*
X205125Y329300D02*
Y331399D01*
X203551D01*
X204075Y330349D01*
Y329824D01*
X203551Y329300D01*
X202501D01*
X201976Y329824D01*
Y330874D01*
X202501Y331399D01*
X204075Y328250D02*
X201976Y327201D01*
X204075Y326151D01*
X201976Y325102D02*
Y324052D01*
Y324577D01*
X205125D01*
X204600Y325102D01*
M02*
