G04*
G04 #@! TF.GenerationSoftware,Altium Limited,Altium Designer,21.2.2 (38)*
G04*
G04 Layer_Color=16711935*
%FSLAX25Y25*%
%MOIN*%
G70*
G04*
G04 #@! TF.SameCoordinates,CEF95F07-8C43-49F3-AA8E-E0B24A2A1908*
G04*
G04*
G04 #@! TF.FilePolarity,Positive*
G04*
G01*
G75*
%ADD11C,0.00394*%
%ADD12C,0.00787*%
%ADD14C,0.01000*%
%ADD95R,0.18110X0.04024*%
%ADD96R,0.13386X0.03283*%
%ADD97R,0.18110X0.04024*%
%ADD98R,0.17717X0.03971*%
D11*
X198031Y209469D02*
Y249232D01*
X238976Y209469D02*
Y249232D01*
X198031Y209469D02*
X238976D01*
X198031Y249232D02*
X238976D01*
X227402Y325768D02*
Y355689D01*
X245512Y325768D02*
Y355689D01*
X227402Y325768D02*
X245512D01*
X227402Y355689D02*
X245512D01*
X188622Y379213D02*
Y384921D01*
X179961Y379213D02*
Y384921D01*
Y379213D02*
X188622D01*
X179961Y384921D02*
X188622D01*
X183504Y311417D02*
Y351181D01*
X224449Y311417D02*
Y351181D01*
X183504Y311417D02*
X224449D01*
X183504Y351181D02*
X224449D01*
X212736Y371142D02*
Y375276D01*
X214902Y371142D02*
Y375276D01*
X212736Y371142D02*
X214902D01*
X212736Y375276D02*
X214902D01*
X199213Y382461D02*
Y387579D01*
X210709Y382461D02*
Y387579D01*
X199213Y382461D02*
X210709D01*
X199213Y387579D02*
X210709D01*
X161063Y321732D02*
Y346142D01*
X174449Y321732D02*
Y346142D01*
X161063Y321732D02*
X174449D01*
X161063Y346142D02*
X174449D01*
X174803Y368209D02*
Y373917D01*
X183465Y368209D02*
Y373917D01*
X174803D02*
X183465D01*
X174803Y368209D02*
X183465D01*
X247835Y355217D02*
X265945D01*
X247835Y325295D02*
X265945D01*
Y355217D01*
X247835Y325295D02*
Y355217D01*
X217854Y377638D02*
X221595D01*
X217854Y370748D02*
X221595D01*
Y377638D01*
X217854Y370748D02*
Y377638D01*
X35425Y134835D02*
Y138968D01*
X33260Y134835D02*
Y138968D01*
X35425D01*
X33260Y134835D02*
X35425D01*
X214272Y282874D02*
Y291535D01*
X208563Y282874D02*
Y291535D01*
X214272D01*
X208563Y282874D02*
X214272D01*
X236319Y275787D02*
X238484D01*
X236319Y271654D02*
X238484D01*
Y275787D01*
X236319Y271654D02*
Y275787D01*
X217480Y289862D02*
X228976D01*
X217480Y284744D02*
X228976D01*
Y289862D01*
X217480Y284744D02*
Y289862D01*
X181496Y240256D02*
X194882D01*
X181496Y215846D02*
X194882D01*
Y240256D01*
X181496Y215846D02*
Y240256D01*
X263779Y261811D02*
Y291732D01*
X245669Y261811D02*
Y291732D01*
X263779D01*
X245669Y261811D02*
X263779D01*
X185236Y261811D02*
X193898D01*
X185236Y267520D02*
X193898D01*
Y261811D02*
Y267520D01*
X185236Y261811D02*
Y267520D01*
X284449Y261811D02*
Y291732D01*
X266339Y261811D02*
Y291732D01*
X284449D01*
X266339Y261811D02*
X284449D01*
X240256Y270079D02*
Y276969D01*
X243996Y270079D02*
Y276969D01*
X240256Y270079D02*
X243996D01*
X240256Y276969D02*
X243996D01*
X33366Y276476D02*
X35531D01*
X33366Y280610D02*
X35531D01*
X33366Y276476D02*
Y280610D01*
X35531Y276476D02*
Y280610D01*
X32382Y228248D02*
X34547D01*
X32382Y232382D02*
X34547D01*
X32382Y228248D02*
Y232382D01*
X34547Y228248D02*
Y232382D01*
X32382Y180020D02*
X34547D01*
X32382Y184153D02*
X34547D01*
X32382Y180020D02*
Y184153D01*
X34547Y180020D02*
Y184153D01*
X240473Y155512D02*
Y185039D01*
X222756Y155512D02*
Y185039D01*
X240473D01*
X222756Y155512D02*
X240473D01*
X158878Y170965D02*
X162618D01*
X158878Y177461D02*
X162618D01*
X158878Y170965D02*
Y177461D01*
X162618Y170965D02*
Y177461D01*
X158878Y167323D02*
X162618D01*
X158878Y160827D02*
X162618D01*
Y167323D01*
X158878Y160827D02*
Y167323D01*
X170984Y155118D02*
X174134D01*
Y148819D02*
Y155118D01*
X170984Y148819D02*
X174134D01*
X170984D02*
Y155118D01*
X36319Y42224D02*
X38484D01*
X36319Y46358D02*
X38484D01*
X36319Y42224D02*
Y46358D01*
X38484Y42224D02*
Y46358D01*
X213406Y174213D02*
X218327D01*
X213406Y166339D02*
Y174213D01*
Y166339D02*
X218327D01*
Y174213D01*
X201595D02*
X206516D01*
X201595Y166339D02*
Y174213D01*
Y166339D02*
X206516D01*
Y174213D01*
X225217Y146653D02*
X230138D01*
X225217Y138779D02*
Y146653D01*
Y138779D02*
X230138D01*
Y146653D01*
X217343D02*
X222264D01*
X217343Y138779D02*
Y146653D01*
Y138779D02*
X222264D01*
Y146653D01*
X70768Y278445D02*
X72933D01*
X70768Y282579D02*
X72933D01*
X70768Y278445D02*
Y282579D01*
X72933Y278445D02*
Y282579D01*
X70768Y231201D02*
X72933D01*
X70768Y235335D02*
X72933D01*
X70768Y231201D02*
Y235335D01*
X72933Y231201D02*
Y235335D01*
X72933Y183957D02*
Y188091D01*
X70768Y183957D02*
Y188091D01*
X72933D01*
X70768Y183957D02*
X72933D01*
Y136713D02*
Y140846D01*
X70768Y136713D02*
Y140846D01*
X72933D01*
X70768Y136713D02*
X72933D01*
X70768Y89469D02*
X72933D01*
X70768Y93602D02*
X72933D01*
X70768Y89469D02*
Y93602D01*
X72933Y89469D02*
Y93602D01*
X70768Y42224D02*
X72933D01*
X70768Y46358D02*
X72933D01*
X70768Y42224D02*
Y46358D01*
X72933Y42224D02*
Y46358D01*
X314075Y84547D02*
Y88681D01*
X311910Y84547D02*
X314075D01*
X311910D02*
Y88681D01*
X314075D01*
Y76673D02*
Y80807D01*
X311910Y76673D02*
X314075D01*
X311910D02*
Y80807D01*
X314075D01*
X36319Y89469D02*
X38484D01*
X36319Y93602D02*
X38484D01*
X36319Y89469D02*
Y93602D01*
X38484Y89469D02*
Y93602D01*
D12*
X188307Y158464D02*
X211929D01*
Y134842D02*
Y158464D01*
X188307Y134842D02*
X211929D01*
X188307D02*
Y158464D01*
X64705Y412205D02*
Y437402D01*
X84193D01*
Y412205D02*
Y437402D01*
X64705Y412205D02*
X84193D01*
D14*
X81709Y368205D02*
X101205D01*
Y166205D02*
Y368205D01*
X81709Y166205D02*
X101205D01*
X81709D02*
Y368205D01*
D95*
X236457Y353677D02*
D03*
X256890Y353204D02*
D03*
X275394Y263823D02*
D03*
D96*
X167758Y344502D02*
D03*
X188191Y238616D02*
D03*
D97*
X254724Y263823D02*
D03*
D98*
X231614Y157495D02*
D03*
M02*
