G04*
G04 #@! TF.GenerationSoftware,Altium Limited,Altium Designer,21.2.2 (38)*
G04*
G04 Layer_Color=8421504*
%FSLAX25Y25*%
%MOIN*%
G70*
G04*
G04 #@! TF.SameCoordinates,CEF95F07-8C43-49F3-AA8E-E0B24A2A1908*
G04*
G04*
G04 #@! TF.FilePolarity,Positive*
G04*
G01*
G75*
G04:AMPARAMS|DCode=15|XSize=210.63mil|YSize=336.22mil|CornerRadius=2.11mil|HoleSize=0mil|Usage=FLASHONLY|Rotation=0.000|XOffset=0mil|YOffset=0mil|HoleType=Round|Shape=RoundedRectangle|*
%AMROUNDEDRECTD15*
21,1,0.21063,0.33201,0,0,0.0*
21,1,0.20642,0.33622,0,0,0.0*
1,1,0.00421,0.10321,-0.16600*
1,1,0.00421,-0.10321,-0.16600*
1,1,0.00421,-0.10321,0.16600*
1,1,0.00421,0.10321,0.16600*
%
%ADD15ROUNDEDRECTD15*%
G04:AMPARAMS|DCode=16|XSize=35.04mil|YSize=94.88mil|CornerRadius=1.93mil|HoleSize=0mil|Usage=FLASHONLY|Rotation=0.000|XOffset=0mil|YOffset=0mil|HoleType=Round|Shape=RoundedRectangle|*
%AMROUNDEDRECTD16*
21,1,0.03504,0.09103,0,0,0.0*
21,1,0.03118,0.09488,0,0,0.0*
1,1,0.00385,0.01559,-0.04551*
1,1,0.00385,-0.01559,-0.04551*
1,1,0.00385,-0.01559,0.04551*
1,1,0.00385,0.01559,0.04551*
%
%ADD16ROUNDEDRECTD16*%
%ADD17R,0.09252X0.08661*%
%ADD18R,0.05512X0.03740*%
%ADD19R,0.05315X0.06102*%
%ADD20R,0.02362X0.02362*%
%ADD21R,0.02254X0.02237*%
%ADD22R,0.02165X0.02165*%
%ADD23R,0.03740X0.05709*%
%ADD24R,0.01860X0.01843*%
%ADD25R,0.03150X0.03543*%
%ADD26R,0.11102X0.07953*%
%ADD27R,0.11102X0.22913*%
%ADD28R,0.08661X0.08071*%
%ADD29R,0.05906X0.06102*%
%ADD30R,0.03543X0.02953*%
%ADD31R,0.06102X0.05315*%
%ADD32R,0.05709X0.03740*%
%ADD33R,0.11811X0.07874*%
%ADD34R,0.07913X0.23622*%
%ADD35R,0.03740X0.03150*%
%ADD36R,0.03347X0.02756*%
%ADD37R,0.03937X0.04331*%
%ADD38R,0.07284X0.03543*%
%ADD39R,0.02953X0.02953*%
%ADD40R,0.04134X0.05709*%
G04:AMPARAMS|DCode=41|XSize=43.31mil|YSize=23.62mil|CornerRadius=2.01mil|HoleSize=0mil|Usage=FLASHONLY|Rotation=180.000|XOffset=0mil|YOffset=0mil|HoleType=Round|Shape=RoundedRectangle|*
%AMROUNDEDRECTD41*
21,1,0.04331,0.01961,0,0,180.0*
21,1,0.03929,0.02362,0,0,180.0*
1,1,0.00402,-0.01965,0.00980*
1,1,0.00402,0.01965,0.00980*
1,1,0.00402,0.01965,-0.00980*
1,1,0.00402,-0.01965,-0.00980*
%
%ADD41ROUNDEDRECTD41*%
%ADD42R,0.03394X0.02985*%
%ADD43R,0.05315X0.03740*%
%ADD44R,0.03740X0.05315*%
%ADD45R,0.05787X0.03819*%
D15*
X218504Y230217D02*
D03*
X203976Y332165D02*
D03*
D16*
X203504Y260256D02*
D03*
X208504D02*
D03*
X213504D02*
D03*
X218504D02*
D03*
X223504D02*
D03*
X228504D02*
D03*
X233504D02*
D03*
X188976Y362205D02*
D03*
X193976D02*
D03*
X198976D02*
D03*
X203976D02*
D03*
X208976D02*
D03*
X213976D02*
D03*
X218976D02*
D03*
D17*
X236457Y329213D02*
D03*
Y352244D02*
D03*
X256890Y351772D02*
D03*
Y328740D02*
D03*
X254724Y288287D02*
D03*
Y265256D02*
D03*
X275394Y288287D02*
D03*
Y265256D02*
D03*
D18*
X175591Y257382D02*
D03*
Y264665D02*
D03*
X151811Y361988D02*
D03*
Y369272D02*
D03*
X269921Y343386D02*
D03*
Y336102D02*
D03*
X253937Y241634D02*
D03*
Y248917D02*
D03*
D19*
X188130Y382067D02*
D03*
X180453D02*
D03*
D20*
X199055Y376260D02*
D03*
Y372126D02*
D03*
X217323Y276279D02*
D03*
Y272146D02*
D03*
D21*
X194134Y372413D02*
D03*
Y375973D02*
D03*
X213819Y381878D02*
D03*
Y378318D02*
D03*
X210236Y272342D02*
D03*
Y275903D02*
D03*
X232677Y272342D02*
D03*
Y275903D02*
D03*
D22*
X213819Y371437D02*
D03*
Y374980D02*
D03*
X34342Y138673D02*
D03*
Y135130D02*
D03*
X237402Y275492D02*
D03*
Y271949D02*
D03*
X34449Y276772D02*
D03*
Y280315D02*
D03*
X33465Y228543D02*
D03*
Y232087D02*
D03*
Y180315D02*
D03*
Y183858D02*
D03*
X37402Y42520D02*
D03*
Y46063D02*
D03*
X71850Y278740D02*
D03*
Y282284D02*
D03*
Y231496D02*
D03*
Y235039D02*
D03*
X71850Y187795D02*
D03*
Y184252D02*
D03*
Y140551D02*
D03*
Y137008D02*
D03*
X71850Y89764D02*
D03*
Y93307D02*
D03*
Y42520D02*
D03*
Y46063D02*
D03*
X312992Y84843D02*
D03*
Y88386D02*
D03*
Y76968D02*
D03*
Y80512D02*
D03*
X37402Y89764D02*
D03*
Y93307D02*
D03*
D23*
X214902Y387972D02*
D03*
X222579D02*
D03*
D24*
X206929Y375776D02*
D03*
Y372610D02*
D03*
X225590Y272342D02*
D03*
Y275509D02*
D03*
D25*
X204961Y381083D02*
D03*
X201220Y388957D02*
D03*
X208701D02*
D03*
X226969Y291240D02*
D03*
X219488D02*
D03*
X223228Y283366D02*
D03*
D26*
X150827Y344173D02*
D03*
X167717Y241634D02*
D03*
D27*
X150827Y327638D02*
D03*
X167717Y225098D02*
D03*
D28*
X167756Y325079D02*
D03*
Y342795D02*
D03*
X188189Y236910D02*
D03*
Y219193D02*
D03*
D29*
X175591Y371063D02*
D03*
X182677D02*
D03*
X193110Y264665D02*
D03*
X186024D02*
D03*
D30*
X219724Y376654D02*
D03*
Y371732D02*
D03*
X242126Y271063D02*
D03*
Y275984D02*
D03*
D31*
X211417Y291043D02*
D03*
Y283366D02*
D03*
D32*
X237008Y291831D02*
D03*
Y284154D02*
D03*
D33*
X231614Y182087D02*
D03*
Y158465D02*
D03*
D34*
X191654Y146653D02*
D03*
X208583D02*
D03*
D35*
X160748Y171653D02*
D03*
Y176772D02*
D03*
D36*
Y166339D02*
D03*
Y161811D02*
D03*
D37*
X172559Y149409D02*
D03*
Y154527D02*
D03*
D38*
X69823Y412205D02*
D03*
X79075D02*
D03*
X69823Y437402D02*
D03*
X79075D02*
D03*
D39*
X74449Y419095D02*
D03*
D40*
X72047Y425984D02*
D03*
X76850D02*
D03*
D41*
X171181Y158661D02*
D03*
Y162402D02*
D03*
Y166142D02*
D03*
X181811D02*
D03*
Y162402D02*
D03*
Y158661D02*
D03*
D42*
X88583Y418791D02*
D03*
Y423728D02*
D03*
D43*
X192244Y173228D02*
D03*
Y167323D02*
D03*
D44*
X177480Y148228D02*
D03*
X183386D02*
D03*
D45*
X215866Y167008D02*
D03*
Y173543D02*
D03*
X204055Y167008D02*
D03*
Y173543D02*
D03*
X227677Y139449D02*
D03*
Y145984D02*
D03*
X219803Y139449D02*
D03*
Y145984D02*
D03*
M02*
