G04*
G04 #@! TF.GenerationSoftware,Altium Limited,Altium Designer,21.2.2 (38)*
G04*
G04 Layer_Color=32768*
%FSLAX25Y25*%
%MOIN*%
G70*
G04*
G04 #@! TF.SameCoordinates,CEF95F07-8C43-49F3-AA8E-E0B24A2A1908*
G04*
G04*
G04 #@! TF.FilePolarity,Positive*
G04*
G01*
G75*
%ADD12C,0.00787*%
%ADD14C,0.01000*%
D12*
X171457Y254724D02*
Y267323D01*
X179724D01*
Y254724D02*
Y267323D01*
X171457Y254724D02*
X179724D01*
X200630Y370551D02*
Y377835D01*
X197480Y370551D02*
X200630D01*
X197480D02*
Y377835D01*
X200630D01*
X192416Y370704D02*
Y377682D01*
X195851D01*
Y370704D02*
Y377682D01*
X192416Y370704D02*
X195851D01*
X212638Y391220D02*
X224843D01*
Y384724D02*
Y391220D01*
X212638Y384724D02*
X224843D01*
X212638D02*
Y391220D01*
X208405Y371294D02*
Y377092D01*
X205453Y371294D02*
X208405D01*
X205453D02*
Y377092D01*
X208405D01*
X215536Y376609D02*
Y383588D01*
X212101Y376609D02*
X215536D01*
X212101D02*
Y383588D01*
X215536D01*
X147677Y359331D02*
Y371929D01*
X155945D01*
Y359331D02*
Y371929D01*
X147677Y359331D02*
X155945D01*
X160354Y315709D02*
Y348622D01*
X141299Y315709D02*
X160354D01*
X141299D02*
Y348622D01*
X160354D01*
X274055Y333445D02*
Y346043D01*
X265787Y333445D02*
X274055D01*
X265787D02*
Y346043D01*
X274055D01*
X218898Y270571D02*
Y277854D01*
X215748Y270571D02*
X218898D01*
X215748D02*
Y277854D01*
X218898D01*
X208519Y270634D02*
Y277612D01*
X211954D01*
Y270634D02*
Y277612D01*
X208519Y270634D02*
X211954D01*
X233760Y281890D02*
X240256D01*
Y294094D01*
X233760D02*
X240256D01*
X233760Y281890D02*
Y294094D01*
X224114Y276824D02*
X227067D01*
X224114Y271027D02*
Y276824D01*
Y271027D02*
X227067D01*
Y276824D01*
X230960Y277612D02*
X234395D01*
X230960Y270634D02*
Y277612D01*
Y270634D02*
X234395D01*
Y277612D01*
X158189Y246083D02*
X177244D01*
X158189Y213169D02*
Y246083D01*
Y213169D02*
X177244D01*
Y246083D01*
X249803Y251575D02*
X258071D01*
X249803Y238976D02*
Y251575D01*
Y238976D02*
X258071D01*
Y251575D01*
X184370Y156004D02*
Y168799D01*
X168622D02*
X184370D01*
X168622Y156004D02*
Y168799D01*
Y156004D02*
X184370D01*
X86319Y425614D02*
X90847D01*
X86319Y416905D02*
Y425614D01*
Y416905D02*
X90847D01*
Y425614D01*
X188898Y164764D02*
X195591D01*
Y175787D01*
X188898D02*
X195591D01*
X188898Y164764D02*
Y175787D01*
X174922Y151575D02*
X185945D01*
Y144882D02*
Y151575D01*
X174922Y144882D02*
X185945D01*
X174922D02*
Y151575D01*
D14*
X87457Y131805D02*
Y132705D01*
X165957Y117605D02*
X217757D01*
X236857Y118305D02*
X288657D01*
X165957Y48705D02*
X217757D01*
X236857D02*
X288657D01*
X79157Y370705D02*
X103757D01*
X87457Y132705D02*
X148557D01*
X87457Y48705D02*
X148557D01*
X79157Y163705D02*
X103757D01*
X165957Y48705D02*
Y117605D01*
X217757Y48705D02*
Y117605D01*
X236857Y48705D02*
Y118305D01*
X288657Y48705D02*
Y118305D01*
X79157Y163705D02*
Y370705D01*
X103757Y163705D02*
Y370705D01*
X87457Y48705D02*
Y131805D01*
X148557Y48705D02*
Y132705D01*
M02*
