G04*
G04 #@! TF.GenerationSoftware,Altium Limited,Altium Designer,21.2.2 (38)*
G04*
G04 Layer_Physical_Order=2*
G04 Layer_Color=16711680*
%FSLAX25Y25*%
%MOIN*%
G70*
G04*
G04 #@! TF.SameCoordinates,CEF95F07-8C43-49F3-AA8E-E0B24A2A1908*
G04*
G04*
G04 #@! TF.FilePolarity,Positive*
G04*
G01*
G75*
%ADD65C,0.05315*%
%ADD66R,0.05315X0.05315*%
%ADD79C,0.07087*%
%ADD82C,0.05906*%
%ADD83C,0.07874*%
%ADD85R,0.05906X0.05906*%
%ADD86C,0.05906*%
%ADD87R,0.06000X0.06000*%
%ADD88C,0.06000*%
%ADD89C,0.07874*%
%ADD90C,0.23622*%
%ADD91C,0.14173*%
%ADD92C,0.05000*%
D65*
X18701Y277559D02*
D03*
Y287402D02*
D03*
X17807Y133858D02*
D03*
Y143701D02*
D03*
X17717Y238189D02*
D03*
Y228346D02*
D03*
Y190945D02*
D03*
Y181102D02*
D03*
X21654Y50197D02*
D03*
Y40354D02*
D03*
X56102Y276575D02*
D03*
Y286417D02*
D03*
Y229330D02*
D03*
Y239173D02*
D03*
Y182087D02*
D03*
Y191929D02*
D03*
Y134843D02*
D03*
Y144685D02*
D03*
Y97441D02*
D03*
Y87599D02*
D03*
Y50197D02*
D03*
Y40354D02*
D03*
X21654Y97441D02*
D03*
Y87599D02*
D03*
D66*
X18701Y297244D02*
D03*
X17807Y153543D02*
D03*
X17717Y248031D02*
D03*
Y200787D02*
D03*
X21654Y60039D02*
D03*
X56102Y296260D02*
D03*
Y249016D02*
D03*
Y201772D02*
D03*
Y154528D02*
D03*
Y107283D02*
D03*
Y60039D02*
D03*
X21654Y107283D02*
D03*
D79*
X86457Y352205D02*
Y362205D01*
Y369865D01*
X90608Y374016D01*
X104116D01*
X108268Y369865D01*
Y346457D02*
Y369865D01*
Y346457D02*
X122047Y332677D01*
X242441Y319213D02*
X273622D01*
D82*
X253937Y177165D02*
X253937D01*
D83*
X319055Y273780D02*
X324803D01*
X273799Y228524D02*
X319055Y273780D01*
X247540Y127106D02*
Y135689D01*
X261811Y207952D02*
X273799Y219940D01*
X261811Y185039D02*
Y207952D01*
X253937Y177165D02*
X261811Y185039D01*
X202756Y125984D02*
X253937Y177165D01*
X192756Y25433D02*
X202756Y35433D01*
Y125984D01*
X324803Y273780D02*
X340551D01*
X183071Y25433D02*
X192756D01*
D85*
X151969Y259528D02*
D03*
X336614Y74803D02*
D03*
X135827Y244094D02*
D03*
X96457Y35433D02*
D03*
X332677Y348268D02*
D03*
Y384016D02*
D03*
X324803Y263780D02*
D03*
X340551D02*
D03*
X183071Y35433D02*
D03*
X167323D02*
D03*
X112205D02*
D03*
D86*
X151969Y269528D02*
D03*
Y279528D02*
D03*
Y289528D02*
D03*
Y299528D02*
D03*
Y309528D02*
D03*
X326614Y74803D02*
D03*
X336614Y84803D02*
D03*
X326614D02*
D03*
X336614Y94803D02*
D03*
X326614D02*
D03*
X336614Y104803D02*
D03*
X326614D02*
D03*
X336614Y114803D02*
D03*
X326614D02*
D03*
X336614Y124803D02*
D03*
X326614D02*
D03*
X336614Y134803D02*
D03*
X326614D02*
D03*
X336614Y144803D02*
D03*
X326614D02*
D03*
X336614Y154803D02*
D03*
X326614D02*
D03*
X336614Y164803D02*
D03*
X326614D02*
D03*
X336614Y174803D02*
D03*
X326614D02*
D03*
X336614Y184803D02*
D03*
X326614D02*
D03*
X135827Y254095D02*
D03*
Y264094D02*
D03*
Y274095D02*
D03*
Y284095D02*
D03*
Y294094D02*
D03*
Y304095D02*
D03*
Y314094D02*
D03*
X96457Y25433D02*
D03*
Y15433D02*
D03*
X332677Y358268D02*
D03*
Y374016D02*
D03*
X324803Y283780D02*
D03*
Y273780D02*
D03*
X340551D02*
D03*
Y283780D02*
D03*
X183071Y25433D02*
D03*
Y15433D02*
D03*
X167323D02*
D03*
Y25433D02*
D03*
X112205D02*
D03*
Y15433D02*
D03*
D87*
X96457Y362205D02*
D03*
D88*
X86457D02*
D03*
X96457Y352205D02*
D03*
X86457D02*
D03*
X96457Y342205D02*
D03*
X86457D02*
D03*
X96457Y332205D02*
D03*
X86457D02*
D03*
X96457Y322205D02*
D03*
X86457D02*
D03*
X96457Y312205D02*
D03*
X86457D02*
D03*
X96457Y302205D02*
D03*
X86457D02*
D03*
X96457Y292205D02*
D03*
X86457D02*
D03*
X96457Y282205D02*
D03*
X86457D02*
D03*
X96457Y272205D02*
D03*
X86457D02*
D03*
X96457Y262205D02*
D03*
X86457D02*
D03*
X96457Y252205D02*
D03*
X86457D02*
D03*
X96457Y242205D02*
D03*
X86457D02*
D03*
X96457Y232205D02*
D03*
X86457D02*
D03*
X96457Y222205D02*
D03*
X86457D02*
D03*
X96457Y212205D02*
D03*
X86457D02*
D03*
X96457Y202205D02*
D03*
X86457D02*
D03*
X96457Y192205D02*
D03*
X86457D02*
D03*
X96457Y182205D02*
D03*
X86457D02*
D03*
X96457Y172205D02*
D03*
X86457D02*
D03*
D89*
X187008Y427953D02*
D03*
Y409449D02*
D03*
Y390945D02*
D03*
D90*
X125669Y421260D02*
D03*
X153858D02*
D03*
D91*
X90551Y72835D02*
D03*
X284347Y153020D02*
D03*
Y381366D02*
D03*
X346457Y403543D02*
D03*
Y45276D02*
D03*
X43701Y434646D02*
D03*
Y14173D02*
D03*
D92*
X273622Y319213D02*
D03*
M02*
